<?xml version="1.0" encoding="UTF-8"?>
<svg xmlns="http://www.w3.org/2000/svg" viewBox="0 0 360 260">
  <defs>
    <linearGradient id="frame" x1="0%" y1="0%" x2="100%" y2="100%">
      <stop offset="0%" stop-color="#ffd700"/>
      <stop offset="100%" stop-color="#ff9ac5"/>
    </linearGradient>
    <linearGradient id="lens" x1="0%" y1="0%" x2="0%" y2="100%">
      <stop offset="0%" stop-color="#ffeef8"/>
      <stop offset="100%" stop-color="#ffd6f0"/>
    </linearGradient>
  </defs>
  <rect width="360" height="260" rx="32" fill="#fffaf2"/>
  <ellipse cx="180" cy="208" rx="110" ry="22" fill="rgba(255,215,0,0.15)"/>
  <path d="M82 116c44-12 104-12 196 0 8 2 14 6 18 12 8 12 6 26-8 40-16 16-36 24-56 24-32 0-58-16-72-38-14 24-40 38-72 38-20 0-40-8-56-24-14-14-16-28-8-40 4-6 10-10 18-12z" fill="url(#frame)"/>
  <path d="M86 130c30-6 60-8 90-8 30 0 60 2 90 8 6 2 10 4 12 10 4 8 2 16-6 24-12 12-28 20-46 20-26 0-46-14-58-34-12 20-32 34-58 34-18 0-34-8-46-20-8-8-10-16-6-24 2-6 6-8 12-10z" fill="url(#lens)"/>
  <path d="M80 126l12-2c4-2 6-6 6-10l-2-12" fill="none" stroke="#ff3b81" stroke-width="6" stroke-linecap="round" opacity="0.7"/>
  <path d="M282 126l-12-2c-4-2-6-6-6-10l2-12" fill="none" stroke="#ff3b81" stroke-width="6" stroke-linecap="round" opacity="0.7"/>
  <path d="M176 122c4-2 8-2 12 0" fill="none" stroke="#ff3b81" stroke-width="6" stroke-linecap="round" opacity="0.7"/>
</svg>
